<svg id="Layer_1" data-name="Layer 1" xmlns="http://www.w3.org/2000/svg" viewBox="0 0 904.71 922.03"><defs><style>.cls-1{fill:#fff;}</style></defs><title>logo</title><path class="cls-1" d="M799,287c10-4,23-10,30-3,8,9,3,29,20,29h5.58q-1.8-74.92.81-130.61-25.46-21.87-98.81-25.28-67.3-2.07-81.77,8.45Q654.92,180.21,652,208.26q2.85,35.16,8.33,54.73,5.31,34.61,9.53,75.58c14.73-2.51,29.7-4.24,44.14-8.57C744,320,770,300,799,287Z" transform="translate(-260.86 -156.77)"/><path class="cls-1" d="M846.1,653.83c2,.3,3.92.61,5.88.89l2.28.32c2,.24,4,.51,6.08.74q8,.93,16,1.58c-.73-8.3-1.46-16.76-2.21-25.43q-2.53-29.05-4.75-56.71c-1.46,3.87-6.48,4.44-9.39,1.93-1.42,6.67-11.68,6.6-11.79-.87,0-1.66,0-3.33,0-5a6.08,6.08,0,0,1-5.94-1.15l-.51,0c-.53,4.57-1.15,9.12-2,13.65-.94,5.1-8.58,5.7-10.89,1.43-2.41-4.44-1.9-9.39-1.42-14.23,0-.26,0-.53.07-.8a184.9,184.9,0,0,1-8.47,16.89c-2.78,4.87-9,3-10.9-1.43-.27-.66-.49-1.32-.7-2-4,1.69-9.41-1.05-8.42-6a6.14,6.14,0,0,1-6.38-3.7c-.26.4-.52.8-.79,1.2-4.19,6.11-13.63,1-10.55-5.51a5.4,5.4,0,0,1,1-3.86c.52-.76,1.06-1.49,1.62-2.2-3.34.74-7.25-1.11-7.27-5.59-.05-9.32-.66-18.64.37-27.93.64-5.73,7.41-7.74,10.58-3.72l.42,0c.83-6.59,1.75-13.19,5.08-19,2.42-4.26,8.92-3.57,10.66.77,0-.87,0-1.74.08-2.61.17-7.13,10.17-7.63,11.71-1.5a5.33,5.33,0,0,1,3.77,2.82c.25-.36.51-.71.78-1.06,1.32-1.71,3.8-1.88,5.72-1.55a5.66,5.66,0,0,1,4.78-4.19,6.46,6.46,0,0,1,3.56.63c.27-.9.52-1.8.8-2.69a6.08,6.08,0,0,1,7.8-3.91c.43-1.17.88-2.33,1.36-3.47,1.41-3.31,4.55-3.63,7.14-2.36,0-.23,0-.46.08-.69.82-5.79,10.48-5.58,11.5,0,0,.09,0,.19,0,.28q-3.36-50.26-5.48-95.13a478.17,478.17,0,0,0-46.81,23.78,451.64,451.64,0,0,0-45.22,29.79c-12.66,9.51-24.27,20.16-36.18,30.56-10.8,9.43-21.65,18.92-31.13,29.71-6.17,7-12.54,15.26-15.65,24.39Q684,570.34,686,606.05C741.93,610.76,793.43,635.26,846.1,653.83Z" transform="translate(-260.86 -156.77)"/><path class="cls-1" d="M927.32,979.55q-17.75-42.48-17.75-45.9Q900,907.85,883.76,738.3c-12.36.09-24.72.15-37.08-.3a352.55,352.55,0,0,1-95.44-16.4c-20.1-6.5-39.54-14.85-58.7-23.76q4.56,51.33,10.55,92.33-30.55-30.28-128.66-213.79-40.56-76.54-91.68-177.77c-2.5-5.16-3.06-12.31-1.63-21.45s1.81-15.85,1.11-20.14q-6.9-33.76-14.37-42.53-13.92-14.46-99.1-12.77-80.79,1.35-91.57,9.51-21.58,16.32-14.65,53.47,2.06,9.48,9.21,20.59,10.54,14.49,12.25,19.54,121.15,281.79,360.19,608.36,4.41,6.4,12.27,26.32,6.48,15.87,16,23.94,20.34,16.83,118.54,15.22t125.52-17.6q16.18-8.85,18.1-36.58Q937.21,1002.17,927.32,979.55Z" transform="translate(-260.86 -156.77)"/><path class="cls-1" d="M701.2,414.4a419.15,419.15,0,0,1,75-59.82C800,339.8,826.77,327,854.85,323.34c-.09-3.47-.19-6.92-.27-10.33H849c-17,0-12-20-20-29-7-7-20-1-30,3-29,13-55,33-85,43-14.44,4.33-29.41,6.06-44.14,8.57q4.85,47.07,8.25,102.55A234,234,0,0,1,701.2,414.4Z" transform="translate(-260.86 -156.77)"/><path class="cls-1" d="M820.68,408.38c-174.72,104-154.81,177-146.89,193.91l0,.07v0c.28.59.54,1.1.78,1.55a1.59,1.59,0,0,0,.18.27,8,8,0,0,0,1.77,1.62s0,0,.05,0c67.31-14.09,127-53,175.46-96.13-3.82-3-2.62-10.76,3.58-10.76a5.39,5.39,0,0,1,5,2.94c65-60.19,107.9-126.15,118.89-143.86.9-1.71,1.81-3.41,2.75-5.11l.22-.38,21.92-113.21C992.53,270.68,952.54,329.91,820.68,408.38Z" transform="translate(-260.86 -156.77)"/><path class="cls-1" d="M917.65,584.81C712,515.34,677.48,591.36,673.7,602.13h0a.7.7,0,0,1,.11.23l0,.08,0,0,.07.14h0a.31.31,0,0,1,.05.1h0l0,0,0,.13h0a10.28,10.28,0,0,0,.75,1.33,7.07,7.07,0,0,0,1.16,1.16c145.85,110.19,388.57,66.53,388.57,66.53l101-57.44C1134,625.76,1063,633.92,917.65,584.81Z" transform="translate(-260.86 -156.77)"/><path class="cls-1" d="M593.21,175.77c-3.61,4.84-5.76,11.29-7.09,18.29l30.79,502.43c.62,10.17,6.52,18.16,13.11,17.76h0c6.59-.4,11.47-9,10.84-19.23L608.7,170.19a27.8,27.8,0,0,0-.47-3.72A23.93,23.93,0,0,0,593.21,175.77Z" transform="translate(-260.86 -156.77)"/><polygon class="cls-1" points="598.49 346.34 591.22 352.98 586.87 348.78 589.31 341.9 599.06 340.32 601.11 343.96 598.49 346.34"/></svg>